<svg xmlns="http://www.w3.org/2000/svg" width="155" height="31" fill="none" xmlns:v="https://vecta.io/nano"><path d="M9.152 1.563L15.5 21.348l6.328-19.785h9.024V30h-6.875v-6.641l.664-13.594L17.766 30h-4.531L6.34 9.746l.664 13.613V30H.148V1.563h9.004zm35.996 28.828c-3.242 0-5.866-.963-7.871-2.891-2.005-1.94-3.008-4.46-3.008-7.559v-.547c0-2.161.397-4.069 1.191-5.723.807-1.654 1.979-2.93 3.516-3.828 1.536-.911 3.359-1.367 5.469-1.367 2.969 0 5.313.924 7.031 2.773 1.719 1.836 2.578 4.401 2.578 7.695v2.559H40.969c.234 1.185.749 2.116 1.543 2.793s1.823 1.016 3.086 1.016c2.083 0 3.711-.729 4.883-2.187l3.008 3.555c-.82 1.133-1.986 2.038-3.496 2.715-1.497.664-3.112.996-4.844.996zm-.742-16.836c-1.927 0-3.073 1.276-3.437 3.828h6.641v-.508c.026-1.055-.241-1.868-.801-2.441-.56-.586-1.361-.879-2.402-.879zm11.484 5.723c0-3.346.723-5.983 2.168-7.91s3.464-2.891 6.055-2.891c1.888 0 3.477.742 4.766 2.227V0h6.602v30h-5.918l-.332-2.266c-1.354 1.771-3.073 2.656-5.156 2.656-2.513 0-4.505-.963-5.977-2.891s-2.207-4.668-2.207-8.223zm6.582.41c0 3.75 1.094 5.625 3.281 5.625 1.458 0 2.5-.612 3.125-1.836V15.43c-.599-1.25-1.628-1.875-3.086-1.875-2.031 0-3.132 1.641-3.301 4.922l-.019 1.211zM86.164 30h-6.602V8.867h6.602V30zM79.172 3.418c0-.937.339-1.706 1.016-2.305s1.556-.898 2.637-.898 1.96.299 2.637.898 1.016 1.367 1.016 2.305-.339 1.706-1.016 2.305-1.556.898-2.637.898-1.96-.299-2.637-.898-1.016-1.367-1.016-2.305z" fill="#c7f2ff"/><path d="M101.301 24.063c0-.56-.293-1.009-.879-1.348s-1.699-.69-3.34-1.055-2.995-.84-4.062-1.426c-1.068-.599-1.881-1.322-2.441-2.168s-.84-1.816-.84-2.91c0-1.94.801-3.535 2.402-4.785 1.602-1.263 3.698-1.895 6.289-1.895 2.786 0 5.026.632 6.718 1.895s2.54 2.923 2.54 4.98h-6.602c0-1.693-.892-2.539-2.676-2.539-.69 0-1.27.195-1.738.586-.469.378-.703.853-.703 1.426 0 .586.286 1.061.859 1.426s1.484.664 2.734.898c1.263.234 2.37.514 3.32.84 3.177 1.094 4.765 3.053 4.765 5.879 0 1.927-.859 3.496-2.578 4.707-1.705 1.211-3.919 1.816-6.64 1.816-1.81 0-3.424-.325-4.844-.976s-2.526-1.537-3.32-2.656-1.191-2.298-1.191-3.535h6.152c.026.977.352 1.693.977 2.148.625.443 1.426.664 2.402.664.898 0 1.569-.182 2.011-.547a1.74 1.74 0 0 0 .684-1.426zM117.688 30h-6.602V8.867h6.602V30zm-6.993-26.582c0-.937.339-1.706 1.016-2.305s1.556-.898 2.637-.898 1.959.299 2.636.898S118 2.48 118 3.418s-.339 1.706-1.016 2.305-1.556.898-2.636.898-1.96-.299-2.637-.898-1.016-1.367-1.016-2.305zm18.731.195v5.254h3.476v4.57h-3.476v9.668c0 .794.143 1.348.429 1.66s.853.469 1.7.469c.651 0 1.198-.039 1.64-.117v4.707c-1.185.378-2.422.566-3.711.566-2.265 0-3.938-.534-5.019-1.601s-1.621-2.689-1.621-4.863V13.438h-2.696v-4.57h2.696V3.613h6.582zm16.308 26.777c-3.242 0-5.866-.963-7.871-2.891-2.005-1.94-3.008-4.46-3.008-7.559v-.547c0-2.161.398-4.069 1.192-5.723.807-1.654 1.979-2.93 3.515-3.828 1.537-.911 3.36-1.367 5.469-1.367 2.969 0 5.313.924 7.031 2.773 1.719 1.836 2.579 4.401 2.579 7.695v2.559h-13.086c.234 1.185.748 2.116 1.543 2.793s1.823 1.016 3.086 1.016c2.083 0 3.711-.729 4.882-2.187l3.008 3.555c-.82 1.133-1.985 2.038-3.496 2.715-1.497.664-3.112.996-4.844.996zm-.742-16.836c-1.927 0-3.073 1.276-3.437 3.828h6.64v-.508c.026-1.055-.241-1.868-.8-2.441-.56-.586-1.361-.879-2.403-.879z" fill="#fff"/></svg>